<svg width="20" height="20" viewBox="0 0 20 20" fill="none" xmlns="http://www.w3.org/2000/svg">
<g clip-path="url(#clip0_1_1397)">
<path d="M7.24151 18.8711L1.26645 12.6423L2.8744 11.2207L2.87459 11.2206C3.34464 10.8036 4.03511 10.7204 4.5877 11.0157L4.58802 11.0158L6.59636 12.0825L6.81672 12.1995V11.95V3.9917V3.99154C6.81642 3.70402 6.88026 3.42005 7.00358 3.16032C7.1269 2.90059 7.3066 2.67164 7.52959 2.49013C7.75258 2.30863 8.01325 2.17915 8.2926 2.11111C8.57196 2.04308 8.86297 2.03822 9.14445 2.09687L9.31281 2.13196L9.32469 1.96039C9.39433 0.954522 10.23 0.158362 11.25 0.158362C11.9149 0.158362 12.4945 0.490354 12.8428 1.0012L12.9114 1.1019L13.0241 1.0553C13.2461 0.96343 13.4931 0.916695 13.75 0.916695C14.2628 0.916695 14.7546 1.12039 15.1171 1.48296C15.4797 1.84553 15.6834 2.33728 15.6834 2.85003V3.08336V3.26707L15.8634 3.23033C16.1443 3.17299 16.4345 3.17885 16.7129 3.24748C16.9912 3.31612 17.2509 3.44581 17.4729 3.62717C17.695 3.80853 17.874 4.03702 17.9969 4.29608C18.1197 4.55513 18.1834 4.83828 18.1834 5.125V5.12503V16.6667C18.1834 18.4255 16.7589 19.85 15 19.85H9.54171C8.68244 19.85 7.83817 19.4916 7.24151 18.8711ZM3.35081 12.6209L3.23346 12.7244L3.34188 12.8373L8.22521 17.9206L8.22595 17.9214C8.56931 18.2738 9.04078 18.4834 9.53338 18.4834H15C15.9996 18.4834 16.8167 17.6662 16.8167 16.6667V5.12503C16.8167 4.80885 16.5662 4.55836 16.25 4.55836C15.9339 4.55836 15.6834 4.80885 15.6834 5.12503V9.85003H14.3167V2.85003C14.3167 2.53385 14.0662 2.28336 13.75 2.28336C13.4339 2.28336 13.1834 2.53385 13.1834 2.85003V9.85003H11.8167V2.0917C11.8167 1.77552 11.5662 1.52503 11.25 1.52503C10.9339 1.52503 10.6834 1.77552 10.6834 2.0917V9.85003H9.31671V3.9917C9.31671 3.67552 9.06623 3.42503 8.75005 3.42503C8.43193 3.42503 8.18338 3.68581 8.18338 3.9917V14.4677L3.94519 12.2258L3.85354 12.1773L3.77581 12.2459L3.35081 12.6209Z" fill="#2B2A70" stroke="white" stroke-width="0.3"/>
</g>
<defs>
<clipPath id="clip0_1_1397">
<rect width="20" height="20" fill="white"/>
</clipPath>
</defs>
</svg>
